<mxfile host="Electron" modified="2024-04-03T11:44:42.704Z" agent="Mozilla/5.0 (Windows NT 10.0; Win64; x64) AppleWebKit/537.36 (KHTML, like Gecko) draw.io/24.1.0 Chrome/120.0.6099.109 Electron/28.1.0 Safari/537.36" etag="B3fWEbtGfPy6LifDRkRA" version="24.1.0" type="device" pages="2">
  <diagram name="Use cases for Amebo_ng" id="mrtZ8X-Qp-M2Py4kVrCZ">
    <mxGraphModel dx="781" dy="546" grid="1" gridSize="10" guides="1" tooltips="1" connect="1" arrows="1" fold="1" page="1" pageScale="1" pageWidth="827" pageHeight="1169" math="0" shadow="0">
      <root>
        <mxCell id="0" />
        <mxCell id="1" parent="0" />
        <mxCell id="67FW8GJFmOnaUYvcuqfZ-1" value="" style="verticalLabelPosition=bottom;shadow=0;dashed=0;align=center;html=1;verticalAlign=top;strokeWidth=1;shape=mxgraph.mockup.containers.userMale;strokeColor=#666666;strokeColor2=#008cff;" parent="1" vertex="1">
          <mxGeometry x="132" y="130" width="100" height="98" as="geometry" />
        </mxCell>
        <mxCell id="67FW8GJFmOnaUYvcuqfZ-2" value="" style="verticalLabelPosition=bottom;shadow=0;dashed=0;align=center;html=1;verticalAlign=top;strokeWidth=1;shape=mxgraph.mockup.containers.userMale;strokeColor=#666666;strokeColor2=#008cff;" parent="1" vertex="1">
          <mxGeometry x="544" y="125" width="100" height="98" as="geometry" />
        </mxCell>
        <mxCell id="67FW8GJFmOnaUYvcuqfZ-3" value="Blogger" style="text;html=1;align=center;verticalAlign=middle;resizable=0;points=[];autosize=1;strokeColor=none;fillColor=none;" parent="1" vertex="1">
          <mxGeometry x="152" y="108" width="60" height="30" as="geometry" />
        </mxCell>
        <mxCell id="67FW8GJFmOnaUYvcuqfZ-4" value="Blog_user" style="text;html=1;align=center;verticalAlign=middle;resizable=0;points=[];autosize=1;strokeColor=none;fillColor=none;" parent="1" vertex="1">
          <mxGeometry x="548" y="108" width="80" height="30" as="geometry" />
        </mxCell>
        <mxCell id="67FW8GJFmOnaUYvcuqfZ-5" value="createPost" style="ellipse;whiteSpace=wrap;html=1;" parent="1" vertex="1">
          <mxGeometry x="199" y="301" width="140" height="70" as="geometry" />
        </mxCell>
        <mxCell id="67FW8GJFmOnaUYvcuqfZ-6" value="Extends" style="endArrow=block;endSize=16;endFill=0;html=1;rounded=0;entryX=0.025;entryY=0.45;entryDx=0;entryDy=0;entryPerimeter=0;exitX=0.985;exitY=0.45;exitDx=0;exitDy=0;exitPerimeter=0;" parent="1" edge="1">
          <mxGeometry width="160" relative="1" as="geometry">
            <mxPoint x="230.5" y="173" as="sourcePoint" />
            <mxPoint x="544.5" y="173" as="targetPoint" />
          </mxGeometry>
        </mxCell>
        <mxCell id="67FW8GJFmOnaUYvcuqfZ-12" value="" style="endArrow=none;html=1;rounded=0;entryX=1.03;entryY=1.026;entryDx=0;entryDy=0;entryPerimeter=0;" parent="1" source="67FW8GJFmOnaUYvcuqfZ-5" edge="1">
          <mxGeometry width="50" height="50" relative="1" as="geometry">
            <mxPoint x="259" y="297" as="sourcePoint" />
            <mxPoint x="232" y="226.548" as="targetPoint" />
          </mxGeometry>
        </mxCell>
        <mxCell id="67FW8GJFmOnaUYvcuqfZ-13" value="editPost" style="ellipse;whiteSpace=wrap;html=1;" parent="1" vertex="1">
          <mxGeometry x="72" y="430" width="140" height="70" as="geometry" />
        </mxCell>
        <mxCell id="67FW8GJFmOnaUYvcuqfZ-14" value="&amp;lt;&amp;lt;extend&amp;gt;&amp;gt;" style="html=1;verticalAlign=bottom;labelBackgroundColor=none;endArrow=open;endFill=0;dashed=1;rounded=0;entryX=0;entryY=1;entryDx=0;entryDy=0;exitX=0.5;exitY=0;exitDx=0;exitDy=0;" parent="1" source="67FW8GJFmOnaUYvcuqfZ-13" target="67FW8GJFmOnaUYvcuqfZ-5" edge="1">
          <mxGeometry x="-0.0567" y="10" width="160" relative="1" as="geometry">
            <mxPoint x="112" y="420" as="sourcePoint" />
            <mxPoint x="272" y="420" as="targetPoint" />
            <mxPoint as="offset" />
          </mxGeometry>
        </mxCell>
        <mxCell id="67FW8GJFmOnaUYvcuqfZ-15" value="deletePost" style="ellipse;whiteSpace=wrap;html=1;" parent="1" vertex="1">
          <mxGeometry x="292" y="437" width="140" height="70" as="geometry" />
        </mxCell>
        <mxCell id="67FW8GJFmOnaUYvcuqfZ-16" value="&amp;lt;&amp;lt;extend&amp;gt;&amp;gt;" style="html=1;verticalAlign=bottom;labelBackgroundColor=none;endArrow=open;endFill=0;dashed=1;rounded=0;entryX=1;entryY=1;entryDx=0;entryDy=0;exitX=0.5;exitY=0;exitDx=0;exitDy=0;" parent="1" source="67FW8GJFmOnaUYvcuqfZ-15" target="67FW8GJFmOnaUYvcuqfZ-5" edge="1">
          <mxGeometry x="-0.042" y="-1" width="160" relative="1" as="geometry">
            <mxPoint x="354" y="430" as="sourcePoint" />
            <mxPoint x="432" y="361" as="targetPoint" />
            <mxPoint as="offset" />
          </mxGeometry>
        </mxCell>
        <mxCell id="67FW8GJFmOnaUYvcuqfZ-17" value="viewPost" style="ellipse;whiteSpace=wrap;html=1;" parent="1" vertex="1">
          <mxGeometry x="542" y="301" width="140" height="70" as="geometry" />
        </mxCell>
        <mxCell id="67FW8GJFmOnaUYvcuqfZ-18" value="Extends" style="endArrow=block;endSize=16;endFill=0;html=1;rounded=0;entryX=1;entryY=0.5;entryDx=0;entryDy=0;exitX=0;exitY=0.5;exitDx=0;exitDy=0;" parent="1" edge="1">
          <mxGeometry x="0.2808" width="160" relative="1" as="geometry">
            <mxPoint x="542" y="335" as="sourcePoint" />
            <mxPoint x="339" y="335" as="targetPoint" />
            <Array as="points" />
            <mxPoint as="offset" />
          </mxGeometry>
        </mxCell>
        <mxCell id="67FW8GJFmOnaUYvcuqfZ-19" value="" style="endArrow=none;html=1;rounded=0;entryX=0.565;entryY=0.99;entryDx=0;entryDy=0;entryPerimeter=0;" parent="1" target="67FW8GJFmOnaUYvcuqfZ-2" edge="1">
          <mxGeometry width="50" height="50" relative="1" as="geometry">
            <mxPoint x="600.5" y="301" as="sourcePoint" />
            <mxPoint x="575.5" y="226.548" as="targetPoint" />
          </mxGeometry>
        </mxCell>
        <mxCell id="67FW8GJFmOnaUYvcuqfZ-20" value="reactToPost" style="ellipse;whiteSpace=wrap;html=1;" parent="1" vertex="1">
          <mxGeometry x="322" y="19" width="140" height="70" as="geometry" />
        </mxCell>
        <mxCell id="67FW8GJFmOnaUYvcuqfZ-21" value="&amp;lt;&amp;lt;extend&amp;gt;&amp;gt;" style="html=1;verticalAlign=bottom;labelBackgroundColor=none;endArrow=open;endFill=0;dashed=1;rounded=0;entryX=0.989;entryY=0.707;entryDx=0;entryDy=0;exitX=0.5;exitY=0;exitDx=0;exitDy=0;entryPerimeter=0;" parent="1" target="67FW8GJFmOnaUYvcuqfZ-20" edge="1">
          <mxGeometry x="-0.042" y="-1" width="160" relative="1" as="geometry">
            <mxPoint x="542" y="130" as="sourcePoint" />
            <mxPoint x="498" y="54" as="targetPoint" />
            <mxPoint as="offset" />
          </mxGeometry>
        </mxCell>
        <mxCell id="67FW8GJFmOnaUYvcuqfZ-23" value="" style="endArrow=block;endSize=16;endFill=0;html=1;rounded=0;entryX=0;entryY=0.5;entryDx=0;entryDy=0;exitX=0.99;exitY=0.005;exitDx=0;exitDy=0;exitPerimeter=0;" parent="1" source="67FW8GJFmOnaUYvcuqfZ-1" target="67FW8GJFmOnaUYvcuqfZ-20" edge="1">
          <mxGeometry x="0.2964" y="-50" width="160" relative="1" as="geometry">
            <mxPoint x="112" y="107" as="sourcePoint" />
            <mxPoint x="426" y="107" as="targetPoint" />
            <mxPoint as="offset" />
          </mxGeometry>
        </mxCell>
      </root>
    </mxGraphModel>
  </diagram>
  <diagram id="E9C0F2NmHi-bIWPOcBQJ" name="E-R diagram for Amebo_ng">
    <mxGraphModel dx="781" dy="546" grid="1" gridSize="10" guides="1" tooltips="1" connect="1" arrows="1" fold="1" page="1" pageScale="1" pageWidth="827" pageHeight="1169" math="0" shadow="0">
      <root>
        <mxCell id="0" />
        <mxCell id="1" parent="0" />
        <mxCell id="t4hM-rWylyBi5T4hc6Ye-1" value="Post" style="swimlane;childLayout=stackLayout;horizontal=1;startSize=30;horizontalStack=0;rounded=1;fontSize=14;fontStyle=0;strokeWidth=2;resizeParent=0;resizeLast=1;shadow=0;dashed=0;align=center;arcSize=4;whiteSpace=wrap;html=1;" parent="1" vertex="1">
          <mxGeometry x="290" y="72" width="250" height="150" as="geometry" />
        </mxCell>
        <mxCell id="t4hM-rWylyBi5T4hc6Ye-2" value="+title: String&lt;br style=&quot;font-size: 15px;&quot;&gt;+content: String&lt;br style=&quot;font-size: 15px;&quot;&gt;+id: String&lt;div&gt;+dateCreated: LocalDateTime&lt;br&gt;&lt;/div&gt;&lt;div&gt;+views: List&amp;lt;View&amp;gt;&lt;/div&gt;&lt;div&gt;&lt;span style=&quot;background-color: initial;&quot;&gt;+comment: List&amp;lt;Comment&amp;gt;&amp;nbsp;&lt;/span&gt;&amp;nbsp;&lt;br&gt;&lt;/div&gt;" style="align=left;strokeColor=none;fillColor=none;spacingLeft=4;fontSize=15;verticalAlign=top;resizable=0;rotatable=0;part=1;html=1;" parent="t4hM-rWylyBi5T4hc6Ye-1" vertex="1">
          <mxGeometry y="30" width="250" height="120" as="geometry" />
        </mxCell>
        <mxCell id="XFx4m6yCFhjhsqKg0CTL-16" value="View" style="swimlane;childLayout=stackLayout;horizontal=1;startSize=30;horizontalStack=0;rounded=1;fontSize=14;fontStyle=0;strokeWidth=2;resizeParent=0;resizeLast=1;shadow=0;dashed=0;align=center;arcSize=4;whiteSpace=wrap;html=1;" parent="1" vertex="1">
          <mxGeometry x="30" y="222" width="160" height="90" as="geometry" />
        </mxCell>
        <mxCell id="XFx4m6yCFhjhsqKg0CTL-17" value="+timeOfView:LocalDateTime&lt;br&gt;+viewer:&amp;nbsp; User&lt;br&gt;+id: String" style="align=left;strokeColor=none;fillColor=none;spacingLeft=4;fontSize=12;verticalAlign=top;resizable=0;rotatable=0;part=1;html=1;" parent="XFx4m6yCFhjhsqKg0CTL-16" vertex="1">
          <mxGeometry y="30" width="160" height="60" as="geometry" />
        </mxCell>
        <mxCell id="XFx4m6yCFhjhsqKg0CTL-20" value="User" style="swimlane;childLayout=stackLayout;horizontal=1;startSize=30;horizontalStack=0;rounded=1;fontSize=14;fontStyle=0;strokeWidth=2;resizeParent=0;resizeLast=1;shadow=0;dashed=0;align=center;arcSize=4;whiteSpace=wrap;html=1;" parent="1" vertex="1">
          <mxGeometry x="20" y="450" width="250" height="150" as="geometry" />
        </mxCell>
        <mxCell id="XFx4m6yCFhjhsqKg0CTL-21" value="+firstname: String&lt;br style=&quot;font-size: 15px;&quot;&gt;+lastname: String&lt;br style=&quot;font-size: 15px;&quot;&gt;+password: String&lt;div&gt;+username: String&lt;br&gt;&lt;/div&gt;&lt;div&gt;+id: String&lt;/div&gt;&lt;div&gt;&lt;span style=&quot;background-color: initial;&quot;&gt;+posts: List&amp;lt;Post&amp;gt;&amp;nbsp;&lt;/span&gt;&amp;nbsp;&lt;br&gt;&lt;/div&gt;" style="align=left;strokeColor=none;fillColor=none;spacingLeft=4;fontSize=15;verticalAlign=top;resizable=0;rotatable=0;part=1;html=1;" parent="XFx4m6yCFhjhsqKg0CTL-20" vertex="1">
          <mxGeometry y="30" width="250" height="120" as="geometry" />
        </mxCell>
        <mxCell id="XFx4m6yCFhjhsqKg0CTL-22" value="Comment" style="swimlane;childLayout=stackLayout;horizontal=1;startSize=30;horizontalStack=0;rounded=1;fontSize=14;fontStyle=0;strokeWidth=2;resizeParent=0;resizeLast=1;shadow=0;dashed=0;align=center;arcSize=4;whiteSpace=wrap;html=1;" parent="1" vertex="1">
          <mxGeometry x="510" y="352" width="250" height="110" as="geometry" />
        </mxCell>
        <mxCell id="XFx4m6yCFhjhsqKg0CTL-23" value="+id: String&lt;br style=&quot;font-size: 15px;&quot;&gt;+commenter: User&lt;br style=&quot;font-size: 15px;&quot;&gt;+commentBody: String&lt;div&gt;+timeOfComment: LocalDateTime&lt;br&gt;&lt;/div&gt;&lt;div&gt;&lt;br&gt;&lt;/div&gt;&lt;div&gt;&lt;br&gt;&lt;/div&gt;" style="align=left;strokeColor=none;fillColor=none;spacingLeft=4;fontSize=15;verticalAlign=top;resizable=0;rotatable=0;part=1;html=1;" parent="XFx4m6yCFhjhsqKg0CTL-22" vertex="1">
          <mxGeometry y="30" width="250" height="80" as="geometry" />
        </mxCell>
        <mxCell id="XFx4m6yCFhjhsqKg0CTL-24" value="" style="endArrow=classic;html=1;rounded=0;entryX=0;entryY=0;entryDx=0;entryDy=0;" parent="1" target="t4hM-rWylyBi5T4hc6Ye-2" edge="1">
          <mxGeometry width="50" height="50" relative="1" as="geometry">
            <mxPoint x="120" y="220" as="sourcePoint" />
            <mxPoint x="170" y="170" as="targetPoint" />
          </mxGeometry>
        </mxCell>
        <mxCell id="XFx4m6yCFhjhsqKg0CTL-25" value="" style="endArrow=classic;html=1;rounded=0;entryX=0.172;entryY=1;entryDx=0;entryDy=0;entryPerimeter=0;" parent="1" target="XFx4m6yCFhjhsqKg0CTL-17" edge="1">
          <mxGeometry width="50" height="50" relative="1" as="geometry">
            <mxPoint x="60" y="450" as="sourcePoint" />
            <mxPoint x="230" y="332" as="targetPoint" />
          </mxGeometry>
        </mxCell>
        <mxCell id="XFx4m6yCFhjhsqKg0CTL-26" value="" style="endArrow=classic;html=1;rounded=0;entryX=0.606;entryY=0.036;entryDx=0;entryDy=0;entryPerimeter=0;exitX=1;exitY=0;exitDx=0;exitDy=0;" parent="1" source="t4hM-rWylyBi5T4hc6Ye-2" target="XFx4m6yCFhjhsqKg0CTL-22" edge="1">
          <mxGeometry width="50" height="50" relative="1" as="geometry">
            <mxPoint x="550" y="222" as="sourcePoint" />
            <mxPoint x="720" y="104" as="targetPoint" />
          </mxGeometry>
        </mxCell>
      </root>
    </mxGraphModel>
  </diagram>
</mxfile>
